<svg xmlns="http://www.w3.org/2000/svg" width="375" viewBox="0 0 375 375" height="375" version="1.0"><path d="M 186.09375 54.609375 C 156.679688 88.183594 141.296875 143.789062 143.203125 198.75 L 228.75 198.75 C 231.386719 142.675781 215.976562 87.304688 186.09375 54.609375 Z M 0 125.859375 C 2.902344 154.011719 8.761719 176.777344 18.28125 198.75 L 122.34375 198.75 C 94.890625 157.5 53.527344 135.378906 0 125.859375 Z M 375 126.09375 C 320.59375 134.355469 278.613281 157.617188 249.375 198.75 L 355.3125 198.75 C 365.273438 177.070312 371.601562 153.601562 375 126.09375 Z M 26.25 219.84375 C 29.09375 226.023438 33.75 233.757812 37.734375 239.296875 L 335.15625 239.0625 C 339.492188 232.996094 343.386719 226.757812 346.40625 219.84375 Z M 51.5625 258.984375 C 57.714844 267.128906 62.871094 270.4375 70.546875 276.5625 L 300.9375 276.5625 C 307.382812 271.523438 314.148438 265.574219 320.15625 258.984375 Z M 95.15625 292.734375 C 114.8125 304.890625 137.871094 312.859375 164.0625 318.28125 L 161.015625 292.734375 Z M 167.34375 292.734375 C 172.410156 303.28125 178.945312 312.128906 186.328125 320.625 C 193.59375 311.980469 198.308594 303.132812 203.4375 292.734375 Z M 211.171875 292.734375 L 207.1875 316.875 C 233.496094 312.039062 256.667969 304.394531 276.796875 292.734375 Z M 211.171875 292.734375"/></svg>