<svg xmlns="http://www.w3.org/2000/svg" width="375" viewBox="0 0 375 375" height="375" version="1.0"><defs><clipPath id="a"><path d="M 59.539062 49 L 315.457031 49 L 315.457031 364.148438 L 59.539062 364.148438 Z M 59.539062 49"/></clipPath><clipPath id="b"><path d="M 183 10.667969 L 223 10.667969 L 223 96 L 183 96 Z M 183 10.667969"/></clipPath><clipPath id="c"><path d="M 282 229 L 290.476562 229 L 290.476562 261 L 282 261 Z M 282 229"/></clipPath><clipPath id="d"><path d="M 171 340 L 203 340 L 203 348.578125 L 171 348.578125 Z M 171 340"/></clipPath><clipPath id="e"><path d="M 84.042969 229 L 92 229 L 92 261 L 84.042969 261 Z M 84.042969 229"/></clipPath></defs><path fill="#FFDF2B" d="M 247.027344 78.515625 C 247.027344 90.882812 228 123 186.152344 114.5625 C 151.765625 126.578125 122.933594 112.675781 122.933594 100.3125 C 122.933594 87.929688 163.035156 69.765625 186.152344 69.765625 C 209.25 69.765625 247.027344 66.152344 247.027344 78.515625"/><path d="M 183.722656 73.328125 C 184.542969 73.292969 185.367188 73.261719 186.152344 73.261719 C 188.441406 73.261719 190.886719 73.226562 193.386719 73.191406 C 195.324219 73.136719 196.847656 71.546875 196.8125 69.609375 C 196.777344 67.6875 195.1875 66.152344 193.246094 66.203125 C 190.765625 66.238281 188.390625 66.273438 186.152344 66.273438 C 185.226562 66.273438 184.300781 66.308594 183.339844 66.363281 C 181.417969 66.464844 179.933594 68.109375 180.054688 70.027344 C 180.140625 71.96875 181.800781 73.433594 183.722656 73.328125 Z M 209.6875 72.804688 C 211.503906 72.789062 213.324219 72.769531 215.121094 72.769531 C 216.554688 72.769531 217.972656 72.789062 219.367188 72.804688 C 221.289062 72.839844 222.878906 71.304688 222.914062 69.382812 C 222.949219 67.445312 221.414062 65.855469 219.472656 65.820312 C 218.039062 65.800781 216.589844 65.785156 215.121094 65.785156 C 213.289062 65.785156 211.4375 65.800781 209.566406 65.820312 C 207.644531 65.855469 206.105469 67.445312 206.140625 69.382812 C 206.160156 71.304688 207.75 72.839844 209.6875 72.804688 Z M 235.023438 74.0625 C 238.203125 74.621094 240.6875 75.496094 242.015625 76.367188 C 242.695312 76.804688 243.0625 77.207031 243.253906 77.519531 C 243.445312 77.835938 243.515625 78.0625 243.535156 78.515625 C 243.535156 79.496094 243.359375 80.839844 242.941406 82.375 C 242.222656 85.082031 240.808594 88.382812 238.675781 91.738281 C 235.460938 96.800781 230.640625 101.988281 224.175781 105.902344 C 217.691406 109.796875 209.582031 112.449219 199.535156 112.46875 C 195.605469 112.46875 191.375 112.046875 186.832031 111.140625 L 185.90625 110.949219 L 185 111.261719 C 176.070312 114.390625 167.5625 115.664062 159.925781 115.664062 C 149.632812 115.679688 140.914062 113.304688 134.992188 110.058594 C 132.039062 108.433594 129.785156 106.597656 128.386719 104.851562 C 126.96875 103.105469 126.429688 101.550781 126.429688 100.3125 C 126.429688 99.910156 126.535156 99.386719 126.867188 98.671875 C 127.441406 97.414062 128.734375 95.738281 130.65625 93.992188 C 133.558594 91.351562 137.804688 88.507812 142.765625 85.871094 C 147.746094 83.214844 153.425781 80.753906 159.242188 78.707031 C 161.0625 78.082031 162.023438 76.089844 161.390625 74.273438 C 160.746094 72.4375 158.753906 71.480469 156.9375 72.125 C 147.589844 75.390625 138.589844 79.6875 131.722656 84.351562 C 128.28125 86.691406 125.378906 89.101562 123.195312 91.667969 C 122.113281 92.960938 121.203125 94.289062 120.539062 95.71875 C 119.859375 97.132812 119.4375 98.6875 119.4375 100.3125 C 119.457031 103.578125 120.820312 106.632812 122.953125 109.253906 C 126.183594 113.203125 131.179688 116.46875 137.488281 118.84375 C 143.78125 121.21875 151.414062 122.648438 159.925781 122.648438 C 168.347656 122.648438 177.625 121.234375 187.304688 117.863281 L 186.152344 114.5625 L 185.453125 117.988281 C 190.433594 118.980469 195.117188 119.453125 199.535156 119.453125 C 208.152344 119.453125 215.683594 117.691406 222.113281 114.84375 C 231.722656 110.5625 238.78125 103.894531 243.445312 97.167969 C 245.789062 93.796875 247.519531 90.425781 248.707031 87.265625 C 249.875 84.089844 250.507812 81.171875 250.523438 78.515625 C 250.523438 76.839844 250.035156 75.164062 249.179688 73.800781 C 247.851562 71.742188 245.894531 70.378906 243.742188 69.382812 C 241.542969 68.371094 239.0625 67.6875 236.300781 67.183594 C 234.414062 66.832031 232.578125 68.089844 232.230469 69.976562 C 231.878906 71.878906 233.136719 73.695312 235.023438 74.0625"/><path fill="#FFDF2B" d="M 232.945312 136.113281 C 218.667969 131.191406 203.398438 128.484375 187.496094 128.484375 C 171.597656 128.484375 156.324219 131.191406 142.050781 136.113281 C 135.496094 126.542969 131.601562 115.382812 131.601562 104.46875 C 131.601562 90.917969 137.578125 83.789062 147.238281 80 C 149.421875 82.253906 152.464844 83.667969 155.835938 83.667969 C 160.851562 83.667969 165.132812 80.613281 166.949219 76.265625 C 169.9375 76.054688 173.046875 75.914062 176.28125 75.84375 C 177.992188 80.402344 182.34375 83.667969 187.496094 83.667969 C 192.652344 83.667969 197.019531 80.402344 198.714844 75.84375 C 201.949219 75.914062 205.058594 76.054688 208.0625 76.265625 C 209.863281 80.613281 214.144531 83.667969 219.140625 83.667969 C 222.53125 83.667969 225.570312 82.253906 227.757812 80 C 237.4375 83.789062 243.394531 90.917969 243.394531 104.46875 C 243.394531 115.382812 239.496094 126.542969 232.945312 136.113281 Z M 260.464844 153.632812 C 260.464844 153.632812 268.136719 116.746094 268.136719 100.3125 C 268.136719 60.214844 232.035156 52.757812 187.496094 52.757812 C 142.957031 52.757812 106.859375 60.214844 106.859375 100.3125 C 106.859375 116.746094 113.570312 154.328125 113.570312 154.328125 C 113.570312 154.328125 63.191406 178.222656 63.191406 250.628906 C 63.191406 305.835938 96.566406 360.671875 187.496094 360.671875 C 276.121094 360.671875 311.800781 304.316406 311.800781 250.628906 C 311.800781 180.507812 260.464844 153.632812 260.464844 153.632812"/><g clip-path="url(#a)"><path d="M 234.097656 132.8125 C 219.457031 127.765625 203.800781 124.988281 187.496094 124.988281 C 171.195312 124.988281 155.539062 127.765625 140.894531 132.8125 L 142.050781 136.113281 L 144.933594 134.140625 C 138.710938 125.078125 135.078125 114.546875 135.09375 104.46875 C 135.09375 98.183594 136.457031 93.796875 138.675781 90.53125 C 140.914062 87.285156 144.128906 84.980469 148.515625 83.25 L 147.238281 80 L 144.722656 82.429688 C 147.519531 85.328125 151.484375 87.160156 155.835938 87.160156 C 159.070312 87.160156 162.074219 86.167969 164.554688 84.472656 C 167.035156 82.796875 168.992188 80.402344 170.164062 77.609375 L 166.949219 76.265625 L 167.175781 79.738281 C 170.113281 79.546875 173.167969 79.40625 176.351562 79.335938 L 176.28125 75.84375 L 172.996094 77.085938 C 174.113281 80.019531 176.050781 82.515625 178.570312 84.316406 C 181.085938 86.097656 184.175781 87.160156 187.496094 87.160156 C 190.816406 87.160156 193.910156 86.097656 196.425781 84.316406 C 198.941406 82.515625 200.898438 80.019531 201.984375 77.085938 L 198.714844 75.84375 L 198.644531 79.335938 C 201.824219 79.40625 204.882812 79.546875 207.820312 79.738281 L 208.0625 76.265625 L 204.832031 77.609375 C 206 80.402344 207.957031 82.796875 210.441406 84.472656 C 212.902344 86.167969 215.925781 87.160156 219.140625 87.160156 C 223.511719 87.160156 227.476562 85.328125 230.273438 82.429688 L 227.757812 80 L 226.480469 83.25 C 230.867188 84.980469 234.097656 87.285156 236.316406 90.53125 C 238.535156 93.796875 239.898438 98.183594 239.898438 104.46875 C 239.917969 114.074219 236.597656 124.117188 230.902344 132.882812 C 229.851562 134.507812 230.308594 136.671875 231.933594 137.722656 C 233.558594 138.769531 235.722656 138.316406 236.773438 136.691406 C 243.113281 126.929688 246.890625 115.679688 246.890625 104.46875 C 246.90625 97.1875 245.265625 91.25 242.082031 86.601562 C 238.921875 81.941406 234.324219 78.796875 229.03125 76.753906 L 226.863281 75.898438 L 225.257812 77.574219 C 223.683594 79.179688 221.554688 80.175781 219.140625 80.175781 C 217.359375 80.175781 215.734375 79.632812 214.371094 78.707031 C 213.007812 77.765625 211.925781 76.457031 211.277344 74.917969 L 210.457031 72.929688 L 208.289062 72.769531 C 205.234375 72.5625 202.070312 72.421875 198.804688 72.351562 L 196.320312 72.300781 L 195.449219 74.621094 C 194.835938 76.246094 193.753906 77.644531 192.371094 78.605469 C 190.992188 79.597656 189.332031 80.175781 187.496094 80.175781 C 185.664062 80.175781 184.003906 79.597656 182.621094 78.621094 C 181.242188 77.644531 180.160156 76.246094 179.546875 74.621094 L 178.671875 72.300781 L 176.210938 72.351562 C 172.925781 72.421875 169.761719 72.5625 166.703125 72.769531 L 164.539062 72.929688 L 163.714844 74.917969 C 163.070312 76.457031 161.988281 77.765625 160.625 78.707031 C 159.261719 79.632812 157.636719 80.175781 155.835938 80.175781 C 153.441406 80.175781 151.3125 79.179688 149.738281 77.574219 L 148.128906 75.898438 L 145.964844 76.753906 C 140.667969 78.796875 136.074219 81.941406 132.910156 86.601562 C 129.730469 91.230469 128.089844 97.1875 128.105469 104.46875 C 128.105469 116.222656 132.265625 128.011719 139.167969 138.089844 L 140.667969 140.289062 L 143.183594 139.414062 C 157.113281 134.613281 172 131.976562 187.496094 131.976562 C 202.996094 131.976562 217.882812 134.613281 231.808594 139.414062 C 233.625 140.042969 235.617188 139.082031 236.246094 137.25 C 236.875 135.433594 235.914062 133.441406 234.097656 132.8125 Z M 82.867188 176.613281 C 79.792969 180.632812 76.769531 185.191406 73.972656 190.324219 C 73.066406 192.019531 73.675781 194.132812 75.371094 195.058594 C 77.066406 195.984375 79.199219 195.355469 80.105469 193.660156 C 82.726562 188.855469 85.558594 184.597656 88.425781 180.859375 C 89.59375 179.320312 89.296875 177.121094 87.777344 175.96875 C 86.242188 174.78125 84.039062 175.078125 82.867188 176.613281 Z M 64.03125 215.558594 C 62.722656 220.539062 61.65625 225.847656 60.921875 231.488281 C 60.675781 233.410156 62.023438 235.15625 63.925781 235.417969 C 65.847656 235.664062 67.597656 234.316406 67.839844 232.394531 C 68.558594 227.035156 69.554688 222.023438 70.792969 217.34375 C 71.28125 215.472656 70.164062 213.550781 68.296875 213.0625 C 66.441406 212.574219 64.519531 213.691406 64.03125 215.558594 Z M 59.925781 258.4375 C 60.675781 271.917969 63.457031 285.277344 68.628906 297.75 C 76.367188 316.453125 89.523438 333.167969 109.078125 345.09375 C 128.628906 357.039062 154.472656 364.164062 187.496094 364.164062 C 218.460938 364.164062 243.324219 357.390625 262.578125 346.109375 C 281.851562 334.84375 295.445312 319.089844 303.957031 301.46875 C 304.796875 299.722656 304.078125 297.644531 302.332031 296.789062 C 300.601562 295.949219 298.523438 296.683594 297.667969 298.414062 C 289.699219 314.898438 277.101562 329.5 259.050781 340.082031 C 241.019531 350.648438 217.464844 357.179688 187.496094 357.179688 C 166.144531 357.179688 148.128906 354.105469 133.101562 348.761719 C 110.5625 340.730469 94.664062 327.648438 84.019531 311.789062 C 73.363281 295.933594 67.980469 277.226562 66.898438 258.050781 C 66.792969 256.128906 65.132812 254.644531 63.210938 254.75 C 61.289062 254.875 59.804688 256.515625 59.925781 258.4375 Z M 314.964844 259.640625 C 315.191406 256.636719 315.296875 253.632812 315.296875 250.628906 C 315.296875 248.167969 315.226562 245.773438 315.121094 243.417969 C 315.015625 241.496094 313.375 239.992188 311.453125 240.097656 C 309.53125 240.203125 308.046875 241.84375 308.132812 243.765625 C 308.253906 246 308.308594 248.289062 308.308594 250.628906 C 308.308594 253.457031 308.203125 256.304688 307.992188 259.132812 C 307.851562 261.054688 309.304688 262.730469 311.226562 262.871094 C 313.164062 263.011719 314.824219 261.5625 314.964844 259.640625 Z M 310.980469 216.695312 C 309.511719 211.175781 307.714844 206.058594 305.6875 201.292969 C 304.917969 199.527344 302.875 198.691406 301.089844 199.457031 C 299.324219 200.210938 298.488281 202.253906 299.257812 204.035156 C 301.144531 208.503906 302.839844 213.324219 304.234375 218.511719 C 304.742188 220.363281 306.648438 221.480469 308.515625 220.972656 C 310.386719 220.484375 311.488281 218.5625 310.980469 216.695312 Z M 292.128906 177.785156 C 277.867188 158.820312 262.371094 150.699219 262.089844 150.523438 L 260.464844 153.632812 L 263.890625 154.328125 C 263.890625 154.3125 265.8125 145.054688 267.753906 133.722656 C 268.714844 128.046875 269.691406 121.847656 270.40625 116.011719 C 271.140625 110.164062 271.632812 104.679688 271.632812 100.3125 C 271.648438 89.78125 269.238281 81.050781 264.746094 74.0625 C 261.375 68.839844 256.867188 64.632812 251.570312 61.347656 C 243.605469 56.40625 233.890625 53.4375 223.019531 51.640625 C 212.167969 49.859375 200.128906 49.261719 187.496094 49.261719 C 176.261719 49.261719 165.515625 49.734375 155.625 51.097656 C 148.21875 52.109375 141.296875 53.628906 135.027344 55.847656 C 125.640625 59.199219 117.640625 64.195312 112.03125 71.546875 C 106.402344 78.882812 103.347656 88.453125 103.363281 100.3125 C 103.363281 107.054688 104.394531 116.730469 105.652344 126.160156 C 106.910156 135.574219 108.378906 144.691406 109.289062 150.070312 C 109.601562 151.972656 111.402344 153.246094 113.304688 152.933594 C 115.210938 152.617188 116.488281 150.800781 116.171875 148.898438 C 115.28125 143.589844 113.8125 134.523438 112.574219 125.234375 C 111.347656 115.960938 110.335938 106.371094 110.351562 100.3125 C 110.351562 90.792969 112.46875 83.546875 116.121094 77.851562 C 118.878906 73.574219 122.550781 70.117188 127.109375 67.285156 C 133.941406 63.027344 142.800781 60.214844 153.09375 58.539062 C 163.382812 56.84375 175.074219 56.25 187.496094 56.25 C 198.539062 56.25 209.007812 56.722656 218.40625 58.011719 C 225.484375 58.972656 231.949219 60.421875 237.628906 62.433594 C 246.15625 65.488281 252.828125 69.785156 257.40625 75.773438 C 261.984375 81.78125 264.640625 89.605469 264.640625 100.3125 C 264.660156 104.15625 264.1875 109.445312 263.472656 115.140625 C 262.40625 123.679688 260.796875 133.164062 259.453125 140.464844 C 258.789062 144.113281 258.175781 147.238281 257.738281 149.441406 C 257.53125 150.539062 257.355469 151.414062 257.234375 152.007812 C 257.109375 152.601562 257.039062 152.914062 257.039062 152.914062 L 256.5 155.5 L 258.839844 156.722656 L 259.207031 156.023438 L 258.839844 156.722656 L 259.207031 156.023438 L 258.839844 156.722656 C 259.015625 156.792969 273.394531 164.476562 286.535156 181.976562 C 287.6875 183.53125 289.890625 183.828125 291.429688 182.675781 C 292.964844 181.523438 293.28125 179.320312 292.128906 177.785156"/></g><path fill="#FFDF2B" d="M 164.765625 84.296875 C 167.5625 93.363281 163.507812 103.296875 155.695312 106.496094 C 147.886719 109.707031 139.269531 104.957031 136.457031 95.910156 L 123.824219 55.253906 C 121.011719 46.207031 125.082031 36.253906 132.894531 33.054688 C 140.703125 29.859375 149.320312 34.609375 152.132812 43.65625 L 164.765625 84.296875"/><path d="M 164.765625 84.296875 L 161.425781 85.34375 C 161.917969 86.933594 162.144531 88.578125 162.160156 90.183594 C 162.160156 93.132812 161.359375 95.980469 159.976562 98.285156 C 158.578125 100.59375 156.65625 102.320312 154.367188 103.265625 C 153.128906 103.769531 151.90625 103.996094 150.679688 103.996094 C 148.425781 103.996094 146.191406 103.195312 144.269531 101.65625 C 142.328125 100.101562 140.703125 97.816406 139.796875 94.863281 L 127.164062 54.222656 C 126.671875 52.617188 126.429688 50.976562 126.429688 49.351562 C 126.429688 46.417969 127.230469 43.570312 128.613281 41.28125 C 130.011719 38.976562 131.933594 37.230469 134.222656 36.289062 C 135.460938 35.78125 136.683594 35.554688 137.910156 35.554688 C 140.144531 35.554688 142.382812 36.359375 144.320312 37.910156 C 146.261719 39.449219 147.886719 41.753906 148.792969 44.6875 L 161.425781 85.34375 L 168.101562 83.265625 L 155.46875 42.628906 C 154.160156 38.417969 151.765625 34.925781 148.691406 32.460938 C 145.632812 29.984375 141.839844 28.566406 137.910156 28.566406 C 135.792969 28.566406 133.628906 28.988281 131.566406 29.824219 C 127.722656 31.398438 124.679688 34.246094 122.621094 37.683594 C 120.558594 41.125 119.457031 45.175781 119.4375 49.351562 C 119.4375 51.65625 119.789062 53.996094 120.488281 56.285156 L 133.121094 96.941406 C 134.414062 101.132812 136.808594 104.644531 139.902344 107.105469 C 142.957031 109.570312 146.734375 110.984375 150.679688 110.984375 C 152.796875 110.984375 154.945312 110.582031 157.023438 109.726562 C 160.867188 108.152344 163.910156 105.308594 165.96875 101.867188 C 168.03125 98.425781 169.132812 94.375 169.152344 90.183594 C 169.152344 87.894531 168.800781 85.554688 168.101562 83.265625 L 164.765625 84.296875"/><path fill="#FFDF2B" d="M 166.703125 94.707031 C 173.398438 95.003906 179.144531 102.09375 179.546875 110.511719 C 179.933594 118.945312 174.828125 125.53125 168.136719 125.234375 L 138.066406 123.820312 C 131.375 123.523438 125.625 116.433594 125.222656 107.996094 C 124.820312 99.578125 127.355469 89.449219 134.046875 89.765625 L 166.703125 94.707031"/><path d="M 166.703125 94.707031 L 166.546875 98.183594 C 167.613281 98.234375 168.695312 98.546875 169.761719 99.160156 C 171.351562 100.050781 172.890625 101.605469 174.027344 103.613281 C 175.179688 105.621094 175.929688 108.085938 176.050781 110.6875 C 176.050781 110.949219 176.070312 111.191406 176.070312 111.453125 C 176.070312 114.632812 175.089844 117.324219 173.675781 119.085938 C 172.976562 119.976562 172.15625 120.640625 171.316406 121.078125 C 170.480469 121.515625 169.570312 121.742188 168.574219 121.742188 L 168.292969 121.742188 L 138.242188 120.34375 L 138.222656 120.34375 C 137.15625 120.292969 136.074219 119.960938 135.007812 119.367188 C 133.417969 118.476562 131.878906 116.921875 130.726562 114.914062 C 129.589844 112.886719 128.839844 110.441406 128.71875 107.839844 C 128.699219 107.332031 128.683594 106.808594 128.683594 106.269531 C 128.664062 102.703125 129.292969 98.949219 130.394531 96.46875 C 130.9375 95.230469 131.582031 94.339844 132.140625 93.886719 C 132.421875 93.640625 132.667969 93.484375 132.910156 93.394531 C 133.15625 93.292969 133.402344 93.257812 133.75 93.238281 L 133.871094 93.257812 L 134.046875 89.765625 L 133.523438 93.222656 L 166.355469 98.183594 L 166.546875 98.183594 L 166.703125 94.707031 L 167.230469 91.25 L 134.394531 86.289062 L 134.222656 86.269531 C 134.0625 86.269531 133.890625 86.253906 133.75 86.253906 C 132.578125 86.253906 131.425781 86.480469 130.378906 86.882812 C 128.542969 87.597656 127.074219 88.875 125.957031 90.304688 C 124.296875 92.453125 123.300781 95.054688 122.636719 97.796875 C 121.992188 100.539062 121.695312 103.4375 121.695312 106.269531 C 121.695312 106.914062 121.710938 107.542969 121.726562 108.171875 C 121.972656 113.132812 123.753906 117.691406 126.570312 121.164062 C 127.984375 122.894531 129.660156 124.378906 131.566406 125.445312 C 133.488281 126.527344 135.636719 127.207031 137.910156 127.3125 L 167.980469 128.710938 C 168.191406 128.726562 168.382812 128.726562 168.574219 128.726562 C 170.707031 128.726562 172.734375 128.203125 174.53125 127.277344 C 177.242188 125.878906 179.371094 123.609375 180.824219 120.867188 C 182.273438 118.125 183.058594 114.894531 183.058594 111.453125 C 183.058594 111.089844 183.042969 110.722656 183.042969 110.355469 C 182.796875 105.394531 181.015625 100.835938 178.203125 97.359375 C 176.785156 95.632812 175.109375 94.148438 173.1875 93.082031 C 171.28125 91.980469 169.132812 91.300781 166.863281 91.214844 L 166.703125 94.707031 L 167.230469 91.25 L 166.703125 94.707031"/><path fill="#FFDF2B" d="M 243.183594 78.324219 C 242.347656 85.902344 235.777344 91.597656 228.488281 91.039062 C 221.203125 90.480469 215.960938 83.878906 216.816406 76.296875 L 220.558594 42.277344 C 221.394531 34.699219 227.984375 29.023438 235.269531 29.582031 C 242.539062 30.140625 247.78125 36.742188 246.941406 44.320312 L 243.183594 78.324219"/><path d="M 243.183594 78.324219 L 239.707031 77.957031 C 239.410156 80.699219 238.117188 83.128906 236.230469 84.855469 C 234.359375 86.585938 231.96875 87.582031 229.46875 87.582031 C 229.222656 87.582031 228.996094 87.5625 228.75 87.5625 C 226.289062 87.355469 224.207031 86.253906 222.671875 84.542969 C 221.152344 82.8125 220.207031 80.488281 220.207031 77.886719 C 220.207031 77.503906 220.242188 77.101562 220.277344 76.683594 L 220.277344 76.648438 L 224.035156 42.660156 C 224.332031 39.902344 225.625 37.492188 227.492188 35.761719 C 229.378906 34.035156 231.773438 33.039062 234.273438 33.039062 C 234.519531 33.039062 234.746094 33.039062 234.988281 33.054688 C 237.453125 33.265625 239.53125 34.367188 241.070312 36.078125 C 242.589844 37.808594 243.535156 40.128906 243.535156 42.730469 C 243.535156 43.117188 243.515625 43.519531 243.464844 43.9375 L 239.707031 77.957031 L 243.183594 78.324219 L 246.660156 78.726562 L 250.417969 44.707031 C 250.488281 44.042969 250.523438 43.378906 250.523438 42.730469 C 250.523438 38.4375 248.949219 34.453125 246.296875 31.449219 C 243.640625 28.445312 239.828125 26.4375 235.53125 26.089844 C 235.113281 26.070312 234.691406 26.054688 234.273438 26.054688 C 229.886719 26.054688 225.816406 27.800781 222.757812 30.628906 C 219.683594 33.457031 217.570312 37.421875 217.078125 41.894531 L 213.339844 75.914062 C 213.253906 76.578125 213.21875 77.242188 213.21875 77.886719 C 213.21875 82.183594 214.789062 86.167969 217.445312 89.171875 C 220.101562 92.175781 223.910156 94.183594 228.210938 94.515625 C 228.628906 94.550781 229.050781 94.566406 229.46875 94.566406 C 233.855469 94.566406 237.925781 92.820312 240.984375 89.972656 C 244.039062 87.144531 246.171875 83.195312 246.660156 78.707031 L 243.183594 78.324219"/><path fill="#FFDF2B" d="M 190.207031 79.582031 C 191.96875 89.554688 186.746094 99.019531 178.550781 100.75 C 170.375 102.460938 162.300781 95.773438 160.554688 85.800781 L 152.65625 41.039062 C 150.910156 31.066406 156.132812 21.582031 164.328125 19.871094 C 172.523438 18.160156 180.578125 24.847656 182.324219 34.804688 L 190.207031 79.582031"/><path d="M 190.207031 79.582031 L 186.761719 80.191406 C 186.972656 81.292969 187.0625 82.375 187.0625 83.441406 C 187.0625 87.003906 186.011719 90.289062 184.335938 92.734375 C 182.640625 95.195312 180.402344 96.785156 177.835938 97.324219 C 177.207031 97.464844 176.59375 97.519531 175.964844 97.519531 C 173.378906 97.519531 170.792969 96.398438 168.574219 94.253906 C 166.371094 92.121094 164.640625 88.960938 163.996094 85.1875 L 156.097656 40.425781 C 155.90625 39.328125 155.820312 38.226562 155.820312 37.160156 C 155.820312 33.617188 156.847656 30.332031 158.542969 27.886719 C 160.238281 25.425781 162.476562 23.816406 165.042969 23.277344 C 165.671875 23.152344 166.285156 23.101562 166.914062 23.101562 C 169.5 23.101562 172.105469 24.21875 174.304688 26.367188 C 176.507812 28.5 178.238281 31.640625 178.902344 35.414062 L 186.761719 80.191406 L 190.207031 79.582031 L 193.648438 78.988281 L 185.769531 34.210938 C 184.875 29.058594 182.5 24.605469 179.179688 21.355469 C 175.878906 18.140625 171.5625 16.117188 166.914062 16.117188 C 165.8125 16.117188 164.710938 16.222656 163.613281 16.449219 C 159.050781 17.390625 155.292969 20.238281 152.777344 23.941406 C 150.226562 27.644531 148.828125 32.269531 148.828125 37.160156 C 148.828125 38.628906 148.953125 40.128906 149.230469 41.632812 L 157.113281 86.410156 C 158.019531 91.546875 160.378906 96.015625 163.699219 99.246094 C 166.984375 102.476562 171.316406 104.503906 175.964844 104.503906 C 177.066406 104.503906 178.167969 104.398438 179.269531 104.171875 C 183.828125 103.210938 187.585938 100.382812 190.101562 96.679688 C 192.652344 92.960938 194.050781 88.347656 194.050781 83.441406 C 194.050781 81.976562 193.910156 80.488281 193.648438 78.988281 L 190.207031 79.582031"/><path fill="#FFDF2B" d="M 218.984375 73.871094 C 219.316406 83.492188 212.816406 91.738281 204.464844 92.296875 C 196.09375 92.855469 189.070312 85.484375 188.753906 75.863281 L 187.289062 32.601562 C 186.972656 22.980469 193.472656 14.71875 201.84375 14.160156 C 210.195312 13.617188 217.21875 20.972656 217.535156 30.613281 L 218.984375 73.871094"/><g clip-path="url(#b)"><path d="M 218.984375 73.871094 L 215.488281 73.976562 C 215.507812 74.167969 215.507812 74.359375 215.507812 74.550781 C 215.507812 78.429688 214.179688 81.957031 212.082031 84.507812 C 209.96875 87.074219 207.226562 88.609375 204.238281 88.820312 C 204.007812 88.839844 203.800781 88.839844 203.574219 88.839844 C 200.671875 88.839844 198 87.546875 195.882812 85.242188 C 193.789062 82.917969 192.371094 79.597656 192.25 75.738281 L 190.78125 32.480469 L 190.78125 31.921875 C 190.78125 28.0625 192.109375 24.515625 194.207031 21.949219 C 196.320312 19.382812 199.082031 17.863281 202.070312 17.652344 C 202.28125 17.636719 202.507812 17.636719 202.714844 17.636719 C 205.617188 17.636719 208.289062 18.910156 210.40625 21.234375 C 212.5 23.539062 213.917969 26.875 214.039062 30.714844 L 215.488281 73.976562 L 218.984375 73.871094 L 222.480469 73.75 L 221.027344 30.488281 C 220.855469 25.058594 218.84375 20.148438 215.59375 16.550781 C 212.34375 12.9375 207.765625 10.648438 202.714844 10.648438 C 202.351562 10.648438 201.984375 10.648438 201.617188 10.683594 C 196.445312 11.035156 191.9375 13.6875 188.789062 17.53125 C 185.664062 21.390625 183.792969 26.453125 183.792969 31.921875 L 183.792969 32.726562 L 185.261719 75.984375 C 185.4375 81.414062 187.445312 86.324219 190.695312 89.921875 C 193.945312 93.519531 198.523438 95.824219 203.574219 95.824219 C 203.941406 95.824219 204.324219 95.804688 204.691406 95.789062 C 209.847656 95.441406 214.371094 92.769531 217.5 88.925781 C 220.644531 85.082031 222.496094 80.019531 222.496094 74.550781 C 222.496094 74.289062 222.496094 74.011719 222.480469 73.75 L 218.984375 73.871094"/></g><path d="M 270.441406 244.875 C 270.441406 224.46875 263.085938 205.042969 249.714844 189.742188 L 249.757812 189.699219 L 247.605469 187.414062 C 231.757812 170.558594 210.300781 161.296875 187.179688 161.296875 C 179.945312 161.296875 172.914062 162.195312 166.128906 163.949219 C 151.214844 167.828125 137.683594 175.824219 126.75 187.414062 L 126.710938 187.457031 L 124.554688 189.699219 L 124.597656 189.742188 C 111.347656 205.042969 103.996094 224.46875 103.996094 244.875 C 103.996094 265.324219 111.347656 284.746094 124.679688 300.011719 L 124.640625 300.050781 L 126.792969 302.335938 C 142.519531 319.027344 163.730469 328.292969 186.570312 328.453125 C 186.773438 328.453125 186.976562 328.496094 187.21875 328.496094 C 187.460938 328.496094 187.664062 328.453125 187.910156 328.453125 C 193.433594 328.414062 198.878906 327.84375 204.164062 326.742188 C 220.703125 323.355469 235.78125 314.988281 247.644531 302.335938 L 249.800781 300.050781 L 249.757812 300.011719 C 263.125 284.746094 270.441406 265.324219 270.441406 244.875 Z M 134.105469 189.535156 C 135.730469 187.988281 137.398438 186.515625 139.105469 185.089844 C 139.347656 184.882812 139.550781 184.722656 139.792969 184.519531 C 141.503906 183.171875 143.25 181.90625 145.039062 180.683594 C 145.324219 180.519531 145.566406 180.3125 145.851562 180.148438 C 147.636719 178.964844 149.46875 177.90625 151.335938 176.886719 C 151.621094 176.722656 151.945312 176.558594 152.230469 176.398438 C 154.101562 175.417969 156.050781 174.519531 158 173.703125 C 158.285156 173.582031 158.609375 173.457031 158.9375 173.335938 C 159.34375 173.171875 159.789062 173.050781 160.195312 172.886719 C 153.53125 179.089844 147.800781 187.496094 143.410156 197.453125 C 140.082031 195.128906 136.910156 192.558594 133.945312 189.660156 C 133.984375 189.660156 134.023438 189.578125 134.105469 189.535156 Z M 129.433594 194.597656 C 132.96875 198.066406 136.789062 201.207031 140.851562 203.945312 C 136.828125 215.125 134.390625 227.9375 134.066406 241.527344 L 110.824219 241.527344 C 111.550781 224.183594 118.054688 207.78125 129.433594 194.597656 Z M 110.824219 248.222656 L 134.023438 248.222656 C 134.351562 261.855469 136.789062 274.625 140.8125 285.808594 C 136.789062 288.542969 132.96875 291.644531 129.433594 295.113281 C 118.054688 282.011719 111.550781 265.605469 110.824219 248.222656 Z M 158.9375 316.335938 C 158.609375 316.210938 158.285156 316.089844 158 315.96875 C 156.050781 315.152344 154.140625 314.253906 152.269531 313.273438 C 151.945312 313.109375 151.660156 312.945312 151.335938 312.785156 C 149.46875 311.804688 147.636719 310.703125 145.851562 309.558594 C 145.566406 309.355469 145.28125 309.195312 144.996094 308.988281 C 143.207031 307.804688 141.460938 306.539062 139.792969 305.191406 C 139.550781 304.988281 139.308594 304.785156 139.066406 304.582031 C 137.355469 303.191406 135.691406 301.722656 134.105469 300.171875 C 134.066406 300.132812 133.984375 300.050781 133.945312 300.011719 C 136.910156 297.113281 140.082031 294.542969 143.410156 292.214844 C 147.800781 302.171875 153.53125 310.578125 160.15625 316.785156 C 159.75 316.621094 159.34375 316.496094 158.9375 316.335938 Z M 183.925781 321.558594 C 169.460938 319.84375 156.78125 307.234375 148.980469 288.625 C 159.503906 282.503906 171.410156 278.992188 183.925781 278.460938 Z M 183.925781 248.222656 L 183.925781 271.6875 C 170.597656 272.21875 157.878906 275.808594 146.542969 282.214844 C 143.089844 272.054688 141.015625 260.507812 140.691406 248.183594 L 183.925781 248.183594 Z M 183.925781 241.527344 L 140.691406 241.527344 C 141.015625 229.207031 143.089844 217.65625 146.542969 207.492188 C 157.878906 213.902344 170.597656 217.53125 183.925781 218.023438 Z M 183.925781 211.289062 C 171.410156 210.757812 159.503906 207.25 148.980469 201.085938 C 156.78125 182.519531 169.460938 169.867188 183.925781 168.195312 Z M 263.695312 241.527344 L 240.492188 241.527344 C 240.167969 227.898438 237.730469 215.125 233.707031 203.902344 C 237.6875 201.167969 241.507812 198.066406 245.085938 194.597656 C 256.421875 207.738281 262.921875 224.183594 263.695312 241.527344 Z M 215.625 173.335938 C 215.867188 173.5 216.191406 173.621094 216.515625 173.742188 C 218.46875 174.558594 220.378906 175.457031 222.285156 176.4375 C 222.574219 176.601562 222.894531 176.765625 223.183594 176.925781 C 225.050781 177.945312 226.878906 179.007812 228.667969 180.148438 C 228.953125 180.3125 229.238281 180.519531 229.519531 180.722656 C 231.308594 181.90625 233.054688 183.171875 234.722656 184.519531 C 234.964844 184.722656 235.210938 184.925781 235.453125 185.089844 C 237.160156 186.476562 238.828125 187.945312 240.414062 189.496094 C 240.453125 189.535156 240.53125 189.621094 240.574219 189.660156 C 237.609375 192.558594 234.4375 195.085938 231.144531 197.453125 C 226.757812 187.496094 221.027344 179.128906 214.40625 172.929688 C 214.8125 173.089844 215.21875 173.210938 215.625 173.335938 Z M 190.589844 168.195312 C 205.058594 169.90625 217.695312 182.519531 225.539062 201.085938 C 214.972656 207.25 203.105469 210.757812 190.589844 211.289062 Z M 190.589844 218.023438 C 203.921875 217.492188 216.640625 213.859375 227.976562 207.453125 C 231.429688 217.613281 233.503906 229.207031 233.828125 241.488281 L 190.589844 241.488281 Z M 190.589844 248.222656 L 233.828125 248.222656 C 233.503906 260.546875 231.429688 272.097656 227.976562 282.257812 C 216.640625 275.851562 203.921875 272.21875 190.589844 271.6875 Z M 190.589844 321.558594 L 190.589844 278.460938 C 203.105469 278.992188 215.015625 282.503906 225.539062 288.664062 C 217.695312 307.234375 205.058594 319.886719 190.589844 321.558594 Z M 240.414062 300.214844 C 238.785156 301.765625 237.117188 303.234375 235.414062 304.660156 C 235.167969 304.867188 234.964844 305.03125 234.722656 305.234375 C 233.015625 306.582031 231.269531 307.847656 229.480469 309.070312 C 229.195312 309.234375 228.953125 309.4375 228.667969 309.601562 C 226.878906 310.785156 225.050781 311.847656 223.183594 312.867188 C 222.894531 313.027344 222.574219 313.191406 222.285156 313.355469 C 220.417969 314.335938 218.46875 315.230469 216.515625 316.046875 C 216.234375 316.171875 215.90625 316.292969 215.582031 316.414062 C 215.175781 316.578125 214.8125 316.699219 214.40625 316.824219 C 221.027344 310.621094 226.757812 302.253906 231.105469 292.296875 C 234.398438 294.621094 237.609375 297.195312 240.53125 300.09375 C 240.492188 300.09375 240.453125 300.132812 240.414062 300.214844 Z M 245.042969 295.113281 C 241.507812 291.644531 237.6875 288.542969 233.664062 285.808594 C 237.6875 274.625 240.125 261.8125 240.453125 248.222656 L 263.65625 248.222656 C 262.921875 265.605469 256.421875 282.011719 245.042969 295.113281 Z M 245.042969 295.113281"/><path d="M 232.285156 151.625 L 229.359375 157.625 C 235.128906 160.441406 240.65625 163.867188 245.777344 167.785156 L 249.839844 162.480469 C 244.351562 158.277344 238.460938 154.644531 232.285156 151.625 Z M 232.285156 151.625"/><path d="M 171.816406 142.359375 L 172.792969 148.972656 C 182.300781 147.542969 192.214844 147.542969 201.765625 148.972656 L 202.742188 142.359375 C 192.542969 140.808594 181.976562 140.808594 171.816406 142.359375 Z M 171.816406 142.359375"/><path d="M 142.191406 151.625 C 136.015625 154.644531 130.125 158.277344 124.640625 162.480469 L 128.703125 167.785156 C 133.820312 163.867188 139.347656 160.441406 145.121094 157.625 Z M 142.191406 151.625"/><path d="M 274.140625 287.195312 C 271.335938 292.992188 267.921875 298.539062 264.023438 303.683594 L 269.304688 307.765625 C 273.488281 302.253906 277.105469 296.339844 280.113281 290.132812 Z M 274.140625 287.195312"/><g clip-path="url(#c)"><path d="M 289.335938 229.328125 L 282.753906 230.304688 C 283.488281 235.082031 283.851562 239.976562 283.851562 244.835938 C 283.851562 249.730469 283.488281 254.628906 282.753906 259.363281 L 289.335938 260.34375 C 290.109375 255.242188 290.476562 250.019531 290.476562 244.792969 C 290.476562 239.652344 290.070312 234.429688 289.335938 229.328125 Z M 289.335938 229.328125"/></g><path d="M 269.304688 181.988281 L 264.023438 186.066406 C 267.921875 191.210938 271.335938 196.761719 274.140625 202.554688 L 280.113281 199.617188 C 277.105469 193.414062 273.488281 187.496094 269.304688 181.988281 Z M 269.304688 181.988281"/><path d="M 128.742188 321.964844 L 124.679688 327.269531 C 130.164062 331.476562 136.058594 335.109375 142.234375 338.125 L 145.160156 332.128906 C 139.386719 329.3125 133.863281 325.882812 128.742188 321.964844 Z M 128.742188 321.964844"/><g clip-path="url(#d)"><path d="M 201.808594 340.738281 C 192.214844 342.207031 182.261719 342.207031 172.792969 340.738281 L 171.816406 347.351562 C 176.898438 348.125 182.097656 348.492188 187.300781 348.492188 C 192.5 348.492188 197.703125 348.085938 202.78125 347.351562 Z M 201.808594 340.738281"/></g><path d="M 245.816406 321.964844 C 240.695312 325.882812 235.167969 329.3125 229.398438 332.128906 L 232.324219 338.125 C 238.5 335.109375 244.394531 331.476562 249.878906 327.269531 Z M 245.816406 321.964844"/><path d="M 105.214844 182.027344 C 101.03125 187.535156 97.414062 193.453125 94.40625 199.660156 L 100.378906 202.597656 C 103.183594 196.761719 106.59375 191.210938 110.496094 186.066406 Z M 105.214844 182.027344"/><g clip-path="url(#e)"><path d="M 91.761719 230.347656 L 85.179688 229.328125 C 84.449219 234.46875 84.042969 239.691406 84.042969 244.875 C 84.042969 250.097656 84.449219 255.324219 85.179688 260.425781 L 91.761719 259.445312 C 91.03125 254.667969 90.667969 249.773438 90.667969 244.917969 C 90.667969 240.058594 91.03125 235.164062 91.761719 230.347656 Z M 91.761719 230.347656"/></g><path d="M 100.378906 287.195312 L 94.40625 290.132812 C 97.414062 296.339844 101.03125 302.253906 105.214844 307.722656 L 110.496094 303.683594 C 106.59375 298.539062 103.183594 292.992188 100.378906 287.195312 Z M 100.378906 287.195312"/></svg>