<svg xmlns="http://www.w3.org/2000/svg" width="375" viewBox="0 0 375 375" height="375" version="1.0"><defs><clipPath id="a"><path d="M 0 50.15625 L 337 50.15625 L 337 294 L 0 294 Z M 0 50.15625"/></clipPath></defs><g clip-path="url(#a)"><path fill="#231F20" d="M 220.574219 275.992188 L 29.363281 275.992188 C 23.105469 275.992188 18.015625 270.902344 18.015625 264.648438 L 18.015625 126.125 L 318.4375 126.125 L 318.4375 176.296875 C 318.4375 181.269531 322.46875 185.296875 327.449219 185.296875 C 332.421875 185.296875 336.453125 181.269531 336.453125 176.296875 L 336.453125 59.957031 C 336.453125 54.980469 332.421875 50.953125 327.449219 50.953125 L 29.363281 50.953125 C 13.164062 50.953125 -0.0078125 64.113281 -0.0078125 80.300781 L -0.0078125 264.644531 C -0.0078125 280.832031 13.164062 293.992188 29.363281 293.992188 L 220.574219 293.992188 C 225.554688 293.992188 229.585938 289.964844 229.585938 284.988281 C 229.585938 280.011719 225.550781 275.992188 220.574219 275.992188 Z M 29.363281 68.960938 L 318.4375 68.960938 L 318.4375 117.121094 L 18.015625 117.121094 L 18.015625 80.308594 C 18.015625 74.046875 23.105469 68.960938 29.363281 68.960938 Z M 29.363281 68.960938"/></g><path fill="#231F20" d="M 371.730469 307.867188 L 315.9375 252.109375 C 320.746094 244.183594 323.566406 234.925781 323.566406 225.003906 C 323.566406 196.046875 300 172.492188 271.023438 172.492188 C 242.046875 172.492188 218.480469 196.046875 218.480469 225.003906 C 218.480469 253.957031 242.046875 277.507812 271.023438 277.507812 C 283.558594 277.507812 295.070312 273.085938 304.105469 265.742188 L 359 320.597656 C 360.761719 322.351562 363.0625 323.238281 365.371094 323.238281 C 367.679688 323.238281 369.984375 322.351562 371.742188 320.597656 C 375.253906 317.089844 375.253906 311.382812 371.730469 307.867188 Z M 236.492188 225.003906 C 236.492188 205.976562 251.980469 190.5 271.015625 190.5 C 290.058594 190.5 305.539062 205.976562 305.539062 225.003906 C 305.539062 244.03125 290.058594 259.503906 271.015625 259.503906 C 251.984375 259.503906 236.492188 244.03125 236.492188 225.003906 Z M 236.492188 225.003906"/><path fill="#231F20" d="M 289.042969 106.222656 C 296.445312 106.222656 302.453125 100.210938 302.453125 92.824219 C 302.453125 85.421875 296.4375 79.410156 289.042969 79.410156 C 281.648438 79.410156 275.632812 85.425781 275.632812 92.824219 C 275.632812 100.210938 281.648438 106.222656 289.042969 106.222656 Z M 289.042969 88.414062 C 291.476562 88.414062 293.449219 90.390625 293.449219 92.824219 C 293.449219 95.253906 291.476562 97.21875 289.042969 97.21875 C 286.617188 97.21875 284.636719 95.253906 284.636719 92.824219 C 284.636719 90.390625 286.621094 88.414062 289.042969 88.414062 Z M 289.042969 88.414062"/><path fill="#231F20" d="M 259.671875 106.222656 C 267.074219 106.222656 273.089844 100.210938 273.089844 92.824219 C 273.089844 85.421875 267.066406 79.410156 259.671875 79.410156 C 252.28125 79.410156 246.257812 85.425781 246.257812 92.824219 C 246.257812 100.210938 252.28125 106.222656 259.671875 106.222656 Z M 259.671875 88.414062 C 262.105469 88.414062 264.078125 90.390625 264.078125 92.824219 C 264.078125 95.253906 262.105469 97.21875 259.671875 97.21875 C 257.238281 97.21875 255.269531 95.253906 255.269531 92.824219 C 255.269531 90.390625 257.246094 88.414062 259.671875 88.414062 Z M 259.671875 88.414062"/><path fill="#231F20" d="M 230.304688 106.222656 C 237.703125 106.222656 243.71875 100.210938 243.71875 92.824219 C 243.71875 85.421875 237.699219 79.410156 230.304688 79.410156 C 222.910156 79.410156 216.894531 85.425781 216.894531 92.824219 C 216.894531 100.210938 222.914062 106.222656 230.304688 106.222656 Z M 230.304688 88.414062 C 232.738281 88.414062 234.707031 90.390625 234.707031 92.824219 C 234.707031 95.253906 232.738281 97.21875 230.304688 97.21875 C 227.875 97.21875 225.898438 95.253906 225.898438 92.824219 C 225.898438 90.390625 227.875 88.414062 230.304688 88.414062 Z M 230.304688 88.414062"/><path d="M 0 0 L 0 375 L 375 375 L 375 0 Z M 365.421875 365.421875 L 9.578125 365.421875 L 9.578125 9.578125 L 365.414062 9.578125 L 365.414062 365.421875 Z M 365.421875 365.421875"/></svg>