<svg xmlns="http://www.w3.org/2000/svg" width="375" viewBox="0 0 375 375" height="375" version="1.0"><path d="M 44.644531 0 C 20.09375 0 0 20.09375 0 44.644531 L 0 330.355469 C 0 354.90625 20.09375 375 44.644531 375 L 330.355469 375 C 354.90625 375 375 354.90625 375 330.355469 L 375 44.644531 C 375 20.09375 354.90625 0 330.355469 0 Z M 44.644531 17.855469 L 330.355469 17.855469 C 345.253906 17.855469 357.144531 29.746094 357.144531 44.644531 L 357.144531 330.355469 C 357.144531 345.253906 345.253906 357.144531 330.355469 357.144531 L 44.644531 357.144531 C 29.746094 357.144531 17.855469 345.253906 17.855469 330.355469 L 17.855469 44.644531 C 17.855469 29.746094 29.746094 17.855469 44.644531 17.855469 Z M 53.570312 98.214844 L 53.570312 276.785156 L 321.429688 276.785156 L 321.429688 98.214844 Z M 71.429688 116.070312 L 303.570312 116.070312 L 303.570312 120.65625 C 300.570312 123.011719 281.648438 137.84375 258.753906 155.847656 C 234.113281 175.226562 209.136719 194.882812 204.066406 199.167969 C 197.773438 204.484375 191.097656 205.355469 187.5 205.355469 C 183.890625 205.355469 177.242188 204.488281 170.949219 199.167969 C 165.863281 194.863281 140.886719 175.226562 116.246094 155.847656 C 93.351562 137.847656 74.429688 123.011719 71.429688 120.65625 Z M 71.429688 143.363281 C 79.910156 150.015625 87.957031 156.320312 105.207031 169.886719 C 115.511719 177.988281 118.789062 180.667969 127.878906 187.847656 L 71.429688 231.757812 Z M 303.570312 143.363281 L 303.570312 231.757812 L 247.105469 187.847656 C 256.195312 180.667969 259.488281 177.992188 269.792969 169.886719 C 287.042969 156.320312 295.089844 150.015625 303.570312 143.363281 Z M 232.699219 199.234375 L 303.570312 254.359375 L 303.570312 258.929688 L 71.429688 258.929688 L 71.429688 254.359375 L 142.28125 199.253906 C 147.132812 203.109375 158.394531 211.945312 159.40625 212.804688 C 169.707031 221.515625 180.910156 223.214844 187.5 223.214844 C 194.097656 223.214844 205.28125 221.503906 215.574219 212.804688 C 216.59375 211.941406 227.847656 203.09375 232.699219 199.234375 Z M 232.699219 199.234375"/></svg>