<svg xmlns="http://www.w3.org/2000/svg" width="375" viewBox="0 0 375 375" height="375" version="1.0"><path d="M 345.703125 35.15625 C 345.703125 38.386719 343.074219 41.015625 339.84375 41.015625 C 336.613281 41.015625 333.984375 38.386719 333.984375 35.15625 C 333.984375 31.925781 336.613281 29.296875 339.84375 29.296875 C 343.074219 29.296875 345.703125 31.925781 345.703125 35.15625"/><path d="M 322.265625 35.15625 C 322.265625 38.386719 319.636719 41.015625 316.40625 41.015625 C 313.175781 41.015625 310.546875 38.386719 310.546875 35.15625 C 310.546875 31.925781 313.175781 29.296875 316.40625 29.296875 C 319.636719 29.296875 322.265625 31.925781 322.265625 35.15625"/><path d="M 298.828125 35.15625 C 298.828125 38.386719 296.199219 41.015625 292.96875 41.015625 C 289.738281 41.015625 287.109375 38.386719 287.109375 35.15625 C 287.109375 31.925781 289.738281 29.296875 292.96875 29.296875 C 296.199219 29.296875 298.828125 31.925781 298.828125 35.15625"/><path d="M 354.492188 363.28125 L 20.507812 363.28125 C 15.648438 363.28125 11.71875 359.351562 11.71875 354.492188 L 11.71875 70.3125 L 363.28125 70.3125 L 363.28125 354.492188 C 363.28125 359.351562 359.351562 363.28125 354.492188 363.28125 Z M 20.507812 11.71875 L 354.492188 11.71875 C 359.351562 11.71875 363.28125 15.648438 363.28125 20.507812 L 363.28125 58.59375 L 11.71875 58.59375 L 11.71875 20.507812 C 11.71875 15.648438 15.648438 11.71875 20.507812 11.71875 Z M 354.492188 0 L 20.507812 0 C 15.082031 0 9.855469 2.164062 5.992188 5.992188 C 2.164062 9.855469 0 15.082031 0 20.507812 L 0 354.492188 C 0 359.917969 2.164062 365.144531 5.992188 369.007812 C 9.855469 372.835938 15.082031 375 20.507812 375 L 354.492188 375 C 359.917969 375 365.144531 372.835938 368.972656 369.007812 C 372.835938 365.144531 375 359.917969 375 354.492188 L 375 20.507812 C 375 15.082031 372.835938 9.855469 368.972656 5.992188 C 365.144531 2.164062 359.917969 0 354.492188 0"/><path d="M 108.398438 105.46875 C 124.144531 105.46875 139.292969 111.496094 150.746094 122.3125 C 162.164062 133.167969 169.023438 147.949219 169.855469 163.695312 C 170.6875 179.410156 165.492188 194.859375 155.273438 206.875 C 151.511719 192.660156 141.523438 180.941406 128.105469 174.949219 C 134.03125 169.65625 137.527344 162.164062 137.796875 154.207031 C 138.0625 146.25 135.097656 138.5625 129.605469 132.835938 C 124.078125 127.109375 116.453125 123.878906 108.5 123.878906 C 100.574219 123.878906 92.949219 127.109375 87.457031 132.835938 C 81.929688 138.5625 78.96875 146.25 79.234375 154.207031 C 79.5 162.164062 82.996094 169.65625 88.921875 174.949219 C 75.40625 180.875 65.351562 192.625 61.523438 206.875 C 51.304688 194.859375 46.109375 179.410156 46.941406 163.695312 C 47.773438 147.949219 54.632812 133.167969 66.050781 122.3125 C 77.503906 111.496094 92.652344 105.46875 108.398438 105.46875 Z M 90.820312 153.074219 C 90.820312 148.414062 92.683594 143.953125 95.980469 140.660156 C 99.277344 137.363281 103.738281 135.496094 108.398438 135.496094 C 113.058594 135.496094 117.519531 137.363281 120.816406 140.660156 C 124.113281 143.953125 125.976562 148.414062 125.976562 153.074219 C 125.976562 157.738281 124.113281 162.199219 120.816406 165.492188 C 117.519531 168.789062 113.058594 170.652344 108.398438 170.652344 C 103.738281 170.652344 99.277344 168.789062 95.980469 165.492188 C 92.683594 162.199219 90.820312 157.738281 90.820312 153.074219 Z M 71.878906 216.398438 C 72.84375 204.046875 80.035156 193.027344 90.921875 187.101562 C 101.839844 181.175781 114.957031 181.175781 125.875 187.101562 C 136.761719 193.027344 143.953125 204.046875 144.917969 216.398438 C 134.367188 224.253906 121.582031 228.515625 108.398438 228.515625 C 95.214844 228.515625 82.429688 224.253906 71.878906 216.398438 Z M 108.398438 240.234375 C 127.808594 240.234375 146.449219 232.511719 160.199219 218.761719 C 173.917969 205.042969 181.640625 186.402344 181.640625 166.992188 C 181.640625 147.582031 173.917969 128.941406 160.199219 115.191406 C 146.449219 101.472656 127.808594 93.75 108.398438 93.75 C 88.988281 93.75 70.347656 101.472656 56.597656 115.191406 C 42.878906 128.941406 35.15625 147.582031 35.15625 166.992188 C 35.15625 186.402344 42.878906 205.042969 56.597656 218.761719 C 70.347656 232.511719 88.988281 240.234375 108.398438 240.234375"/><path d="M 333.984375 120.117188 L 205.078125 120.117188 C 201.847656 120.117188 199.21875 122.746094 199.21875 125.976562 C 199.21875 129.207031 201.847656 131.835938 205.078125 131.835938 L 333.984375 131.835938 C 337.214844 131.835938 339.84375 129.207031 339.84375 125.976562 C 339.84375 122.746094 337.214844 120.117188 333.984375 120.117188"/><path d="M 205.078125 169.921875 L 286.742188 169.921875 C 289.972656 169.921875 292.601562 167.292969 292.601562 164.0625 C 292.601562 160.832031 289.972656 158.203125 286.742188 158.203125 L 205.078125 158.203125 C 201.847656 158.203125 199.21875 160.832031 199.21875 164.0625 C 199.21875 167.292969 201.847656 169.921875 205.078125 169.921875"/><path d="M 333.984375 196.289062 L 205.078125 196.289062 C 201.847656 196.289062 199.21875 198.917969 199.21875 202.148438 C 199.21875 205.378906 201.847656 208.007812 205.078125 208.007812 L 333.984375 208.007812 C 337.214844 208.007812 339.84375 205.378906 339.84375 202.148438 C 339.84375 198.917969 337.214844 196.289062 333.984375 196.289062"/><path d="M 328.125 328.125 L 46.875 328.125 L 46.875 275.390625 L 328.125 275.390625 Z M 333.984375 263.671875 L 41.015625 263.671875 C 37.785156 263.671875 35.15625 266.300781 35.15625 269.53125 L 35.15625 333.984375 C 35.15625 335.515625 35.789062 337.015625 36.855469 338.144531 C 37.984375 339.210938 39.449219 339.84375 41.015625 339.84375 L 333.984375 339.84375 C 335.515625 339.84375 337.015625 339.210938 338.113281 338.144531 C 339.210938 337.015625 339.84375 335.515625 339.84375 333.984375 L 339.84375 269.53125 C 339.84375 268 339.210938 266.5 338.113281 265.402344 C 337.015625 264.304688 335.515625 263.671875 333.984375 263.671875"/></svg>