<svg xmlns="http://www.w3.org/2000/svg" width="375" viewBox="0 0 375 375" height="375" version="1.0"><defs><clipPath id="a"><path d="M 17 17.785156 L 358 17.785156 L 358 375 L 17 375 Z M 17 17.785156"/></clipPath></defs><g clip-path="url(#a)"><path d="M 187.546875 17.785156 C 151.695312 17.785156 122.453125 47.019531 122.453125 82.863281 C 122.453125 118.703125 151.695312 147.9375 187.546875 147.9375 C 223.398438 147.9375 252.640625 118.703125 252.640625 82.863281 C 252.640625 47.019531 223.398438 17.785156 187.546875 17.785156 Z M 187.546875 34.054688 C 214.59375 34.054688 236.367188 55.820312 236.367188 82.863281 C 236.367188 109.902344 214.59375 131.667969 187.546875 131.667969 C 160.5 131.667969 138.726562 109.902344 138.726562 82.863281 C 138.726562 55.820312 160.5 34.054688 187.546875 34.054688 Z M 146.734375 164.082031 C 146.324219 164.113281 145.941406 164.144531 145.527344 164.207031 L 130.589844 164.207031 C 115.460938 164.207031 102.84375 169.480469 93.59375 175.328125 C 84.34375 181.175781 78.558594 187.277344 75.792969 190.929688 C 60.472656 211.265625 26.464844 267.03125 26.464844 267.03125 C 26.433594 267.0625 26.402344 267.097656 26.371094 267.160156 C 20.171875 277.773438 16.515625 288.097656 17.183594 298.648438 C 17.851562 309.167969 23.097656 319.015625 31.996094 327.882812 L 69.566406 365.472656 C 80.277344 376.179688 96.992188 376.59375 108.785156 367.726562 L 110.28125 384.570312 C 110.503906 387.492188 112.25 390.066406 114.921875 391.335938 C 117.589844 392.578125 120.703125 392.324219 123.121094 390.605469 C 125.503906 388.890625 126.808594 386.03125 126.488281 383.109375 L 114.253906 244.820312 C 113.933594 241.453125 111.582031 238.625 108.339844 237.734375 C 105.066406 236.8125 101.570312 238.019531 99.570312 240.753906 L 64.667969 288.574219 C 62.316406 291.816406 62.667969 296.296875 65.496094 299.125 L 100.710938 334.332031 C 106.210938 339.828125 106.210938 348.472656 100.710938 353.96875 C 95.214844 359.46875 86.570312 359.46875 81.101562 353.96875 L 43.5 316.378906 C 36.476562 309.355469 33.808594 303.605469 33.425781 297.570312 C 33.042969 291.5625 35.140625 284.414062 40.449219 275.359375 C 40.578125 275.136719 75.222656 218.703125 88.792969 200.71875 C 88.792969 200.71875 88.792969 200.71875 88.792969 200.683594 C 89.8125 199.351562 94.929688 193.726562 102.269531 189.085938 C 109.644531 184.449219 119.273438 180.476562 130.589844 180.476562 L 141.429688 180.476562 L 175.753906 262.839844 L 163.421875 295.726562 C 162.4375 298.394531 163.898438 301.316406 166.695312 302.238281 L 190.3125 310.34375 C 193.109375 311.261719 196.160156 309.898438 197.175781 307.226562 L 211.640625 268.589844 C 212.625 265.921875 211.195312 262.996094 208.398438 262.074219 L 200.769531 259.4375 L 233.664062 180.476562 L 244.503906 180.476562 C 255.820312 180.476562 265.449219 184.449219 272.824219 189.085938 C 280.164062 193.726562 285.28125 199.351562 286.300781 200.683594 C 286.300781 200.71875 286.300781 200.71875 286.300781 200.71875 C 299.871094 218.703125 334.515625 275.136719 334.644531 275.359375 C 339.953125 284.414062 342.050781 291.5625 341.667969 297.570312 C 341.285156 303.605469 338.617188 309.355469 331.59375 316.378906 L 293.992188 353.96875 C 288.523438 359.46875 279.878906 359.46875 274.378906 353.96875 C 268.882812 348.472656 268.882812 339.828125 274.378906 334.332031 L 309.597656 299.125 C 312.425781 296.296875 312.777344 291.816406 310.390625 288.574219 L 275.523438 240.753906 C 273.523438 238.019531 270.027344 236.8125 266.753906 237.734375 C 263.511719 238.625 261.160156 241.453125 260.839844 244.820312 L 248.605469 383.109375 C 248.285156 386.03125 249.589844 388.890625 251.972656 390.605469 C 254.390625 392.324219 257.503906 392.578125 260.171875 391.335938 C 262.84375 390.066406 264.589844 387.492188 264.8125 384.570312 L 266.308594 367.726562 C 278.097656 376.59375 294.816406 376.179688 305.527344 365.472656 L 343.128906 327.882812 C 351.996094 319.015625 357.242188 309.167969 357.910156 298.648438 C 358.578125 288.097656 354.921875 277.773438 348.722656 267.160156 C 348.691406 267.097656 348.660156 267.0625 348.628906 267.03125 C 348.628906 267.03125 314.621094 211.265625 299.300781 190.929688 C 296.535156 187.277344 290.75 181.175781 281.5 175.328125 C 272.25 169.480469 259.632812 164.207031 244.503906 164.207031 L 148.132812 164.207031 C 147.65625 164.144531 147.214844 164.082031 146.734375 164.082031 Z M 159.066406 180.476562 L 216.023438 180.476562 L 187.546875 248.792969 Z M 99.949219 267.859375 L 104.113281 314.695312 L 81.929688 292.546875 Z M 275.144531 267.859375 L 293.164062 292.546875 L 270.980469 314.695312 Z M 275.144531 267.859375"/></g><path d="M 0 0 L 0 375 L 375 375 L 375 0 Z M 365.421875 365.421875 L 9.578125 365.421875 L 9.578125 9.578125 L 365.414062 9.578125 L 365.414062 365.421875 Z M 365.421875 365.421875"/></svg>